<mxfile host="app.diagrams.net" modified="2023-12-16T19:39:01.485Z" agent="Mozilla/5.0 (Windows NT 10.0; Win64; x64) AppleWebKit/537.36 (KHTML, like Gecko) Chrome/120.0.0.0 Safari/537.36" etag="Bbg1tvyGCtYH3TWECZTQ" version="22.1.11" type="device">
  <diagram name="Sayfa -1" id="wAebiPUWf6FitXioffcx">
    <mxGraphModel dx="5349" dy="2661" grid="1" gridSize="10" guides="1" tooltips="1" connect="1" arrows="1" fold="1" page="1" pageScale="1" pageWidth="827" pageHeight="1169" math="0" shadow="0">
      <root>
        <mxCell id="0" />
        <mxCell id="1" parent="0" />
        <mxCell id="mCFHg2fbaJKSFHSSuZTI-1" value="Advisor" style="swimlane;fontStyle=1;align=center;verticalAlign=top;childLayout=stackLayout;horizontal=1;startSize=26;horizontalStack=0;resizeParent=1;resizeParentMax=0;resizeLast=0;collapsible=1;marginBottom=0;whiteSpace=wrap;html=1;" vertex="1" parent="1">
          <mxGeometry x="-290" y="240" width="230" height="140" as="geometry" />
        </mxCell>
        <mxCell id="mCFHg2fbaJKSFHSSuZTI-2" value="- drafts: ArrayList&amp;lt;Draft&amp;gt;&lt;br&gt;- students: ArrayList&amp;lt;Student&amp;gt;" style="text;strokeColor=none;fillColor=none;align=left;verticalAlign=top;spacingLeft=4;spacingRight=4;overflow=hidden;rotatable=0;points=[[0,0.5],[1,0.5]];portConstraint=eastwest;whiteSpace=wrap;html=1;" vertex="1" parent="mCFHg2fbaJKSFHSSuZTI-1">
          <mxGeometry y="26" width="230" height="34" as="geometry" />
        </mxCell>
        <mxCell id="mCFHg2fbaJKSFHSSuZTI-3" value="" style="line;strokeWidth=1;fillColor=none;align=left;verticalAlign=middle;spacingTop=-1;spacingLeft=3;spacingRight=3;rotatable=0;labelPosition=right;points=[];portConstraint=eastwest;strokeColor=inherit;" vertex="1" parent="mCFHg2fbaJKSFHSSuZTI-1">
          <mxGeometry y="60" width="230" height="8" as="geometry" />
        </mxCell>
        <mxCell id="mCFHg2fbaJKSFHSSuZTI-4" value="+ addDraft(draft: Draft): void&lt;br&gt;+ addstudent(student: Student): void&lt;br&gt;+ processDrafts(): void&lt;br&gt;+ accessors()/mutators()" style="text;strokeColor=none;fillColor=none;align=left;verticalAlign=top;spacingLeft=4;spacingRight=4;overflow=hidden;rotatable=0;points=[[0,0.5],[1,0.5]];portConstraint=eastwest;whiteSpace=wrap;html=1;" vertex="1" parent="mCFHg2fbaJKSFHSSuZTI-1">
          <mxGeometry y="68" width="230" height="72" as="geometry" />
        </mxCell>
        <mxCell id="mCFHg2fbaJKSFHSSuZTI-13" value="Lecturer" style="swimlane;fontStyle=1;align=center;verticalAlign=top;childLayout=stackLayout;horizontal=1;startSize=26;horizontalStack=0;resizeParent=1;resizeParentMax=0;resizeLast=0;collapsible=1;marginBottom=0;whiteSpace=wrap;html=1;" vertex="1" parent="1">
          <mxGeometry x="-280" y="-120" width="360" height="140" as="geometry" />
        </mxCell>
        <mxCell id="mCFHg2fbaJKSFHSSuZTI-14" value="- profession: String&lt;br&gt;- courseInstances: ArrayList&amp;lt;CourseInstance&amp;gt;" style="text;strokeColor=none;fillColor=none;align=left;verticalAlign=top;spacingLeft=4;spacingRight=4;overflow=hidden;rotatable=0;points=[[0,0.5],[1,0.5]];portConstraint=eastwest;whiteSpace=wrap;html=1;" vertex="1" parent="mCFHg2fbaJKSFHSSuZTI-13">
          <mxGeometry y="26" width="360" height="34" as="geometry" />
        </mxCell>
        <mxCell id="mCFHg2fbaJKSFHSSuZTI-15" value="" style="line;strokeWidth=1;fillColor=none;align=left;verticalAlign=middle;spacingTop=-1;spacingLeft=3;spacingRight=3;rotatable=0;labelPosition=right;points=[];portConstraint=eastwest;strokeColor=inherit;" vertex="1" parent="mCFHg2fbaJKSFHSSuZTI-13">
          <mxGeometry y="60" width="360" height="8" as="geometry" />
        </mxCell>
        <mxCell id="mCFHg2fbaJKSFHSSuZTI-16" value="+ Lecturer()&lt;br&gt;+ Lecturer(profession: String)&lt;br&gt;+ findAllCourseInstances(courses: ArrayList&amp;lt;Course&amp;gt;): void&lt;br&gt;+ accessors()/mutators()" style="text;strokeColor=none;fillColor=none;align=left;verticalAlign=top;spacingLeft=4;spacingRight=4;overflow=hidden;rotatable=0;points=[[0,0.5],[1,0.5]];portConstraint=eastwest;whiteSpace=wrap;html=1;" vertex="1" parent="mCFHg2fbaJKSFHSSuZTI-13">
          <mxGeometry y="68" width="360" height="72" as="geometry" />
        </mxCell>
        <mxCell id="mCFHg2fbaJKSFHSSuZTI-17" value="Staff" style="swimlane;fontStyle=1;align=center;verticalAlign=top;childLayout=stackLayout;horizontal=1;startSize=26;horizontalStack=0;resizeParent=1;resizeParentMax=0;resizeLast=0;collapsible=1;marginBottom=0;whiteSpace=wrap;html=1;" vertex="1" parent="1">
          <mxGeometry x="-90" y="-300" width="240" height="120" as="geometry" />
        </mxCell>
        <mxCell id="mCFHg2fbaJKSFHSSuZTI-18" value="- staffID: String&lt;br&gt;- department: String" style="text;strokeColor=none;fillColor=none;align=left;verticalAlign=top;spacingLeft=4;spacingRight=4;overflow=hidden;rotatable=0;points=[[0,0.5],[1,0.5]];portConstraint=eastwest;whiteSpace=wrap;html=1;" vertex="1" parent="mCFHg2fbaJKSFHSSuZTI-17">
          <mxGeometry y="26" width="240" height="34" as="geometry" />
        </mxCell>
        <mxCell id="mCFHg2fbaJKSFHSSuZTI-19" value="" style="line;strokeWidth=1;fillColor=none;align=left;verticalAlign=middle;spacingTop=-1;spacingLeft=3;spacingRight=3;rotatable=0;labelPosition=right;points=[];portConstraint=eastwest;strokeColor=inherit;" vertex="1" parent="mCFHg2fbaJKSFHSSuZTI-17">
          <mxGeometry y="60" width="240" height="8" as="geometry" />
        </mxCell>
        <mxCell id="mCFHg2fbaJKSFHSSuZTI-20" value="+ Staff()&lt;br&gt;+ Staff(staffID: String, department: String)&lt;br&gt;+ accessors()/mutators()" style="text;strokeColor=none;fillColor=none;align=left;verticalAlign=top;spacingLeft=4;spacingRight=4;overflow=hidden;rotatable=0;points=[[0,0.5],[1,0.5]];portConstraint=eastwest;whiteSpace=wrap;html=1;" vertex="1" parent="mCFHg2fbaJKSFHSSuZTI-17">
          <mxGeometry y="68" width="240" height="52" as="geometry" />
        </mxCell>
        <mxCell id="mCFHg2fbaJKSFHSSuZTI-21" value="StudentAffairsStaff" style="swimlane;fontStyle=1;align=center;verticalAlign=top;childLayout=stackLayout;horizontal=1;startSize=26;horizontalStack=0;resizeParent=1;resizeParentMax=0;resizeLast=0;collapsible=1;marginBottom=0;whiteSpace=wrap;html=1;" vertex="1" parent="1">
          <mxGeometry x="170" y="-120" width="260" height="120" as="geometry" />
        </mxCell>
        <mxCell id="mCFHg2fbaJKSFHSSuZTI-22" value="- workingField: String" style="text;strokeColor=none;fillColor=none;align=left;verticalAlign=top;spacingLeft=4;spacingRight=4;overflow=hidden;rotatable=0;points=[[0,0.5],[1,0.5]];portConstraint=eastwest;whiteSpace=wrap;html=1;" vertex="1" parent="mCFHg2fbaJKSFHSSuZTI-21">
          <mxGeometry y="26" width="260" height="26" as="geometry" />
        </mxCell>
        <mxCell id="mCFHg2fbaJKSFHSSuZTI-23" value="" style="line;strokeWidth=1;fillColor=none;align=left;verticalAlign=middle;spacingTop=-1;spacingLeft=3;spacingRight=3;rotatable=0;labelPosition=right;points=[];portConstraint=eastwest;strokeColor=inherit;" vertex="1" parent="mCFHg2fbaJKSFHSSuZTI-21">
          <mxGeometry y="52" width="260" height="8" as="geometry" />
        </mxCell>
        <mxCell id="mCFHg2fbaJKSFHSSuZTI-24" value="+ StudentAffairsStaff()&lt;br&gt;+ StudentAffarisStaff(workingField: String)&lt;br&gt;+ accessors()/mutators()" style="text;strokeColor=none;fillColor=none;align=left;verticalAlign=top;spacingLeft=4;spacingRight=4;overflow=hidden;rotatable=0;points=[[0,0.5],[1,0.5]];portConstraint=eastwest;whiteSpace=wrap;html=1;" vertex="1" parent="mCFHg2fbaJKSFHSSuZTI-21">
          <mxGeometry y="60" width="260" height="60" as="geometry" />
        </mxCell>
        <mxCell id="mCFHg2fbaJKSFHSSuZTI-25" value="&lt;i&gt;User&lt;/i&gt;" style="swimlane;fontStyle=1;align=center;verticalAlign=top;childLayout=stackLayout;horizontal=1;startSize=26;horizontalStack=0;resizeParent=1;resizeParentMax=0;resizeLast=0;collapsible=1;marginBottom=0;whiteSpace=wrap;html=1;" vertex="1" parent="1">
          <mxGeometry x="-400" y="-560" width="190" height="190" as="geometry" />
        </mxCell>
        <mxCell id="mCFHg2fbaJKSFHSSuZTI-26" value="- name: String&lt;br&gt;- lastName: String&lt;br&gt;- birthDate: String&lt;br&gt;- address: String&lt;br&gt;- ssn: String&lt;br&gt;- email: String&lt;br&gt;- password: String" style="text;strokeColor=none;fillColor=none;align=left;verticalAlign=top;spacingLeft=4;spacingRight=4;overflow=hidden;rotatable=0;points=[[0,0.5],[1,0.5]];portConstraint=eastwest;whiteSpace=wrap;html=1;" vertex="1" parent="mCFHg2fbaJKSFHSSuZTI-25">
          <mxGeometry y="26" width="190" height="114" as="geometry" />
        </mxCell>
        <mxCell id="mCFHg2fbaJKSFHSSuZTI-27" value="" style="line;strokeWidth=1;fillColor=none;align=left;verticalAlign=middle;spacingTop=-1;spacingLeft=3;spacingRight=3;rotatable=0;labelPosition=right;points=[];portConstraint=eastwest;strokeColor=inherit;" vertex="1" parent="mCFHg2fbaJKSFHSSuZTI-25">
          <mxGeometry y="140" width="190" height="8" as="geometry" />
        </mxCell>
        <mxCell id="mCFHg2fbaJKSFHSSuZTI-28" value="+ getInfo(): String&lt;br&gt;+ accessors()/mutators()" style="text;strokeColor=none;fillColor=none;align=left;verticalAlign=top;spacingLeft=4;spacingRight=4;overflow=hidden;rotatable=0;points=[[0,0.5],[1,0.5]];portConstraint=eastwest;whiteSpace=wrap;html=1;" vertex="1" parent="mCFHg2fbaJKSFHSSuZTI-25">
          <mxGeometry y="148" width="190" height="42" as="geometry" />
        </mxCell>
        <mxCell id="mCFHg2fbaJKSFHSSuZTI-29" value="Student" style="swimlane;fontStyle=1;align=center;verticalAlign=top;childLayout=stackLayout;horizontal=1;startSize=26;horizontalStack=0;resizeParent=1;resizeParentMax=0;resizeLast=0;collapsible=1;marginBottom=0;whiteSpace=wrap;html=1;" vertex="1" parent="1">
          <mxGeometry x="-780" y="-300" width="430" height="230" as="geometry" />
        </mxCell>
        <mxCell id="mCFHg2fbaJKSFHSSuZTI-30" value="- StudentId: String&lt;br&gt;- advisor: Advisor&lt;br&gt;- transcript: Transcript&lt;br&gt;- draft: Draft&lt;br&gt;- year: long&lt;br&gt;- registeredCourses: ArrayList&amp;lt;Course&amp;gt;" style="text;strokeColor=none;fillColor=none;align=left;verticalAlign=top;spacingLeft=4;spacingRight=4;overflow=hidden;rotatable=0;points=[[0,0.5],[1,0.5]];portConstraint=eastwest;whiteSpace=wrap;html=1;" vertex="1" parent="mCFHg2fbaJKSFHSSuZTI-29">
          <mxGeometry y="26" width="430" height="94" as="geometry" />
        </mxCell>
        <mxCell id="mCFHg2fbaJKSFHSSuZTI-31" value="" style="line;strokeWidth=1;fillColor=none;align=left;verticalAlign=middle;spacingTop=-1;spacingLeft=3;spacingRight=3;rotatable=0;labelPosition=right;points=[];portConstraint=eastwest;strokeColor=inherit;" vertex="1" parent="mCFHg2fbaJKSFHSSuZTI-29">
          <mxGeometry y="120" width="430" height="8" as="geometry" />
        </mxCell>
        <mxCell id="mCFHg2fbaJKSFHSSuZTI-32" value="+ getEligableCourses(allCourses: ArrayList&amp;lt;Course&amp;gt;): ArrayList&amp;lt;Course&amp;gt;&lt;br&gt;+ sendDraftToAdvisor(studentAdvisor: Advisor): void&lt;br&gt;- isRegisteredCourse(course: Course): boolean&lt;br&gt;+ addToRegisteredCourses(course: Course): void&lt;br&gt;+ getTranscriptInformation(transcript: Transcript): String&lt;br&gt;+ accessors()/mutators()" style="text;strokeColor=none;fillColor=none;align=left;verticalAlign=top;spacingLeft=4;spacingRight=4;overflow=hidden;rotatable=0;points=[[0,0.5],[1,0.5]];portConstraint=eastwest;whiteSpace=wrap;html=1;" vertex="1" parent="mCFHg2fbaJKSFHSSuZTI-29">
          <mxGeometry y="128" width="430" height="102" as="geometry" />
        </mxCell>
        <mxCell id="mCFHg2fbaJKSFHSSuZTI-33" value="Main" style="swimlane;fontStyle=1;align=center;verticalAlign=top;childLayout=stackLayout;horizontal=1;startSize=26;horizontalStack=0;resizeParent=1;resizeParentMax=0;resizeLast=0;collapsible=1;marginBottom=0;whiteSpace=wrap;html=1;" vertex="1" parent="1">
          <mxGeometry x="-1110" y="-930" width="180" height="60" as="geometry" />
        </mxCell>
        <mxCell id="mCFHg2fbaJKSFHSSuZTI-35" value="" style="line;strokeWidth=1;fillColor=none;align=left;verticalAlign=middle;spacingTop=-1;spacingLeft=3;spacingRight=3;rotatable=0;labelPosition=right;points=[];portConstraint=eastwest;strokeColor=inherit;" vertex="1" parent="mCFHg2fbaJKSFHSSuZTI-33">
          <mxGeometry y="26" width="180" height="8" as="geometry" />
        </mxCell>
        <mxCell id="mCFHg2fbaJKSFHSSuZTI-36" value="&lt;u&gt;+ main(args: String[]): void&lt;/u&gt;" style="text;strokeColor=none;fillColor=none;align=left;verticalAlign=top;spacingLeft=4;spacingRight=4;overflow=hidden;rotatable=0;points=[[0,0.5],[1,0.5]];portConstraint=eastwest;whiteSpace=wrap;html=1;" vertex="1" parent="mCFHg2fbaJKSFHSSuZTI-33">
          <mxGeometry y="34" width="180" height="26" as="geometry" />
        </mxCell>
        <mxCell id="mCFHg2fbaJKSFHSSuZTI-37" value="LoginSystem" style="swimlane;fontStyle=1;align=center;verticalAlign=top;childLayout=stackLayout;horizontal=1;startSize=26;horizontalStack=0;resizeParent=1;resizeParentMax=0;resizeLast=0;collapsible=1;marginBottom=0;whiteSpace=wrap;html=1;" vertex="1" parent="1">
          <mxGeometry x="-1700" y="-820" width="480" height="410" as="geometry" />
        </mxCell>
        <mxCell id="mCFHg2fbaJKSFHSSuZTI-38" value="- &lt;u&gt;scanner: Scanner&lt;/u&gt;&lt;br&gt;- &lt;u&gt;jsonFileManage: JSONFileManager&lt;/u&gt;&lt;br&gt;- &lt;u&gt;executorService: ScheduledExecutorService&lt;/u&gt;&lt;br&gt;- incorrectAttemptsStudent: int&lt;br&gt;- incorrectAttemptsLecturer: int&lt;br&gt;- incorrectAttemptsAdvisor: int&lt;br&gt;- incorrectAttemptsStaff: int&lt;br&gt;- maxAttempts: int&lt;br&gt;- timeoutSeconds: int" style="text;strokeColor=none;fillColor=none;align=left;verticalAlign=top;spacingLeft=4;spacingRight=4;overflow=hidden;rotatable=0;points=[[0,0.5],[1,0.5]];portConstraint=eastwest;whiteSpace=wrap;html=1;" vertex="1" parent="mCFHg2fbaJKSFHSSuZTI-37">
          <mxGeometry y="26" width="480" height="144" as="geometry" />
        </mxCell>
        <mxCell id="mCFHg2fbaJKSFHSSuZTI-39" value="" style="line;strokeWidth=1;fillColor=none;align=left;verticalAlign=middle;spacingTop=-1;spacingLeft=3;spacingRight=3;rotatable=0;labelPosition=right;points=[];portConstraint=eastwest;strokeColor=inherit;" vertex="1" parent="mCFHg2fbaJKSFHSSuZTI-37">
          <mxGeometry y="170" width="480" height="8" as="geometry" />
        </mxCell>
        <mxCell id="mCFHg2fbaJKSFHSSuZTI-40" value="+ startSystem(): void&lt;br&gt;- studentLogin(): void&lt;br&gt;- lecturerLogin(): void&lt;br&gt;- advisorLogin(): void&lt;br&gt;- studentAffairsStaffLogin(): void&lt;br&gt;- registrationProcess(student: Student): void&lt;br&gt;- getUserWithId(ID: String, className: String): User&lt;br&gt;- intInput(): int&lt;br&gt;- doubleInput(): double&lt;br&gt;- draftApprovalProcess(advisor: Advisor): void&lt;br&gt;- controlYourCourses(lecturer: Lecturer): void&lt;br&gt;- passOrFailStudent(course: CourseInstance): void&lt;br&gt;- gradeStudent(course: CourseInstance): void&lt;br&gt;- getCourseInformationFromLecturer(lecturer: Lecturer, course: CourseInstance): void&lt;br&gt;- init(): void" style="text;strokeColor=none;fillColor=none;align=left;verticalAlign=top;spacingLeft=4;spacingRight=4;overflow=hidden;rotatable=0;points=[[0,0.5],[1,0.5]];portConstraint=eastwest;whiteSpace=wrap;html=1;" vertex="1" parent="mCFHg2fbaJKSFHSSuZTI-37">
          <mxGeometry y="178" width="480" height="232" as="geometry" />
        </mxCell>
        <mxCell id="mCFHg2fbaJKSFHSSuZTI-41" value="JSONFileManager" style="swimlane;fontStyle=1;align=center;verticalAlign=top;childLayout=stackLayout;horizontal=1;startSize=26;horizontalStack=0;resizeParent=1;resizeParentMax=0;resizeLast=0;collapsible=1;marginBottom=0;whiteSpace=wrap;html=1;" vertex="1" parent="1">
          <mxGeometry x="-980" y="-820" width="310" height="320" as="geometry" />
        </mxCell>
        <mxCell id="mCFHg2fbaJKSFHSSuZTI-42" value="- advisors: ArrayList&amp;lt;Advisor&amp;gt;&lt;br&gt;- lecturers: ArrayList&amp;lt;Lecturer&amp;gt;&lt;br&gt;- studentAffairsStaff: ArrayList&amp;lt;StudentAffairsStaff&amp;gt;&lt;br&gt;- student: ArrayList&amp;lt;Student&amp;gt;&lt;br&gt;- courses: ArrayList&amp;lt;Course&amp;gt;" style="text;strokeColor=none;fillColor=none;align=left;verticalAlign=top;spacingLeft=4;spacingRight=4;overflow=hidden;rotatable=0;points=[[0,0.5],[1,0.5]];portConstraint=eastwest;whiteSpace=wrap;html=1;" vertex="1" parent="mCFHg2fbaJKSFHSSuZTI-41">
          <mxGeometry y="26" width="310" height="84" as="geometry" />
        </mxCell>
        <mxCell id="mCFHg2fbaJKSFHSSuZTI-43" value="" style="line;strokeWidth=1;fillColor=none;align=left;verticalAlign=middle;spacingTop=-1;spacingLeft=3;spacingRight=3;rotatable=0;labelPosition=right;points=[];portConstraint=eastwest;strokeColor=inherit;" vertex="1" parent="mCFHg2fbaJKSFHSSuZTI-41">
          <mxGeometry y="110" width="310" height="8" as="geometry" />
        </mxCell>
        <mxCell id="mCFHg2fbaJKSFHSSuZTI-44" value="+ JSONFileManager()&lt;br&gt;+ writeAllDataToJSON(): void&lt;br&gt;- writeAllCoursesData(): void&lt;br&gt;- getAllCoursesData(): void&lt;br&gt;- writeAllStudentsdata(): void&lt;br&gt;- writeAllAdvisorsData(): void&lt;br&gt;- getAllAdvisorsData(): void&lt;br&gt;- getAllStudentsData(): void&lt;br&gt;- getAllLecturersData(): void&lt;br&gt;- writeAllLecturersData(): void&lt;br&gt;- writeAllStudentAffairsStaffsData(): void&lt;br&gt;- getAllStudentAffairsStaffsData(): void&lt;br&gt;+ accessors()/mutators()" style="text;strokeColor=none;fillColor=none;align=left;verticalAlign=top;spacingLeft=4;spacingRight=4;overflow=hidden;rotatable=0;points=[[0,0.5],[1,0.5]];portConstraint=eastwest;whiteSpace=wrap;html=1;" vertex="1" parent="mCFHg2fbaJKSFHSSuZTI-41">
          <mxGeometry y="118" width="310" height="202" as="geometry" />
        </mxCell>
        <mxCell id="mCFHg2fbaJKSFHSSuZTI-45" value="Transcript" style="swimlane;fontStyle=1;align=center;verticalAlign=top;childLayout=stackLayout;horizontal=1;startSize=26;horizontalStack=0;resizeParent=1;resizeParentMax=0;resizeLast=0;collapsible=1;marginBottom=0;whiteSpace=wrap;html=1;" vertex="1" parent="1">
          <mxGeometry x="-1490" y="-190" width="280" height="150" as="geometry" />
        </mxCell>
        <mxCell id="mCFHg2fbaJKSFHSSuZTI-46" value="- courses: ArrayList&amp;lt;Course&amp;gt;&lt;br&gt;- GPA: Double" style="text;strokeColor=none;fillColor=none;align=left;verticalAlign=top;spacingLeft=4;spacingRight=4;overflow=hidden;rotatable=0;points=[[0,0.5],[1,0.5]];portConstraint=eastwest;whiteSpace=wrap;html=1;" vertex="1" parent="mCFHg2fbaJKSFHSSuZTI-45">
          <mxGeometry y="26" width="280" height="34" as="geometry" />
        </mxCell>
        <mxCell id="mCFHg2fbaJKSFHSSuZTI-47" value="" style="line;strokeWidth=1;fillColor=none;align=left;verticalAlign=middle;spacingTop=-1;spacingLeft=3;spacingRight=3;rotatable=0;labelPosition=right;points=[];portConstraint=eastwest;strokeColor=inherit;" vertex="1" parent="mCFHg2fbaJKSFHSSuZTI-45">
          <mxGeometry y="60" width="280" height="8" as="geometry" />
        </mxCell>
        <mxCell id="mCFHg2fbaJKSFHSSuZTI-48" value="+ Transcript()&lt;br&gt;+ addCourse(course: Course): void&lt;br&gt;- updateGPA(): void&lt;br&gt;+ toString(): String&lt;br&gt;+ accessors()/mutators()" style="text;strokeColor=none;fillColor=none;align=left;verticalAlign=top;spacingLeft=4;spacingRight=4;overflow=hidden;rotatable=0;points=[[0,0.5],[1,0.5]];portConstraint=eastwest;whiteSpace=wrap;html=1;" vertex="1" parent="mCFHg2fbaJKSFHSSuZTI-45">
          <mxGeometry y="68" width="280" height="82" as="geometry" />
        </mxCell>
        <mxCell id="mCFHg2fbaJKSFHSSuZTI-49" value="Course" style="swimlane;fontStyle=1;align=center;verticalAlign=top;childLayout=stackLayout;horizontal=1;startSize=26;horizontalStack=0;resizeParent=1;resizeParentMax=0;resizeLast=0;collapsible=1;marginBottom=0;whiteSpace=wrap;html=1;" vertex="1" parent="1">
          <mxGeometry x="-1490" y="20" width="300" height="260" as="geometry" />
        </mxCell>
        <mxCell id="mCFHg2fbaJKSFHSSuZTI-50" value="- student: Student&lt;br&gt;- advisor: Advisor&lt;br&gt;- courseLecturer: Lecturer&lt;br&gt;- grade: Grade&lt;br&gt;- courseName: String&lt;br&gt;- courseCode: String&lt;br&gt;- prequisite: String&lt;br&gt;- credits: long&lt;br&gt;- year: long&lt;br&gt;- isPrerequisitesCompleted: boolean&lt;br&gt;- isCompleted: boolean&lt;br&gt;- isApproved: boolean" style="text;strokeColor=none;fillColor=none;align=left;verticalAlign=top;spacingLeft=4;spacingRight=4;overflow=hidden;rotatable=0;points=[[0,0.5],[1,0.5]];portConstraint=eastwest;whiteSpace=wrap;html=1;" vertex="1" parent="mCFHg2fbaJKSFHSSuZTI-49">
          <mxGeometry y="26" width="300" height="184" as="geometry" />
        </mxCell>
        <mxCell id="mCFHg2fbaJKSFHSSuZTI-51" value="" style="line;strokeWidth=1;fillColor=none;align=left;verticalAlign=middle;spacingTop=-1;spacingLeft=3;spacingRight=3;rotatable=0;labelPosition=right;points=[];portConstraint=eastwest;strokeColor=inherit;" vertex="1" parent="mCFHg2fbaJKSFHSSuZTI-49">
          <mxGeometry y="210" width="300" height="8" as="geometry" />
        </mxCell>
        <mxCell id="mCFHg2fbaJKSFHSSuZTI-52" value="+ isPrerequisitesCompleted(course: String): boolean&lt;br&gt;+ accessors()/mutators()" style="text;strokeColor=none;fillColor=none;align=left;verticalAlign=top;spacingLeft=4;spacingRight=4;overflow=hidden;rotatable=0;points=[[0,0.5],[1,0.5]];portConstraint=eastwest;whiteSpace=wrap;html=1;" vertex="1" parent="mCFHg2fbaJKSFHSSuZTI-49">
          <mxGeometry y="218" width="300" height="42" as="geometry" />
        </mxCell>
        <mxCell id="mCFHg2fbaJKSFHSSuZTI-53" value="Grade" style="swimlane;fontStyle=1;align=center;verticalAlign=top;childLayout=stackLayout;horizontal=1;startSize=26;horizontalStack=0;resizeParent=1;resizeParentMax=0;resizeLast=0;collapsible=1;marginBottom=0;whiteSpace=wrap;html=1;" vertex="1" parent="1">
          <mxGeometry x="-1520" y="350" width="390" height="170" as="geometry" />
        </mxCell>
        <mxCell id="mCFHg2fbaJKSFHSSuZTI-54" value="- outOfHundred: double&lt;br&gt;- gano: double&lt;br&gt;- letterGrade: String" style="text;strokeColor=none;fillColor=none;align=left;verticalAlign=top;spacingLeft=4;spacingRight=4;overflow=hidden;rotatable=0;points=[[0,0.5],[1,0.5]];portConstraint=eastwest;whiteSpace=wrap;html=1;" vertex="1" parent="mCFHg2fbaJKSFHSSuZTI-53">
          <mxGeometry y="26" width="390" height="54" as="geometry" />
        </mxCell>
        <mxCell id="mCFHg2fbaJKSFHSSuZTI-55" value="" style="line;strokeWidth=1;fillColor=none;align=left;verticalAlign=middle;spacingTop=-1;spacingLeft=3;spacingRight=3;rotatable=0;labelPosition=right;points=[];portConstraint=eastwest;strokeColor=inherit;" vertex="1" parent="mCFHg2fbaJKSFHSSuZTI-53">
          <mxGeometry y="80" width="390" height="8" as="geometry" />
        </mxCell>
        <mxCell id="mCFHg2fbaJKSFHSSuZTI-56" value="+ Grade()&lt;br&gt;+ Grade(outOfHunderd: double, gano: double, letterGrade: String)&lt;br&gt;+ convertHunderdToGano(hunderdNot: double): double&lt;br&gt;+ convertHunderdToLetterGrade(hunderd: double): void&lt;br&gt;+ accessors()/mutators()" style="text;strokeColor=none;fillColor=none;align=left;verticalAlign=top;spacingLeft=4;spacingRight=4;overflow=hidden;rotatable=0;points=[[0,0.5],[1,0.5]];portConstraint=eastwest;whiteSpace=wrap;html=1;" vertex="1" parent="mCFHg2fbaJKSFHSSuZTI-53">
          <mxGeometry y="88" width="390" height="82" as="geometry" />
        </mxCell>
        <mxCell id="mCFHg2fbaJKSFHSSuZTI-57" value="CourseInstance" style="swimlane;fontStyle=1;align=center;verticalAlign=top;childLayout=stackLayout;horizontal=1;startSize=26;horizontalStack=0;resizeParent=1;resizeParentMax=0;resizeLast=0;collapsible=1;marginBottom=0;whiteSpace=wrap;html=1;" vertex="1" parent="1">
          <mxGeometry x="-560" y="-30" width="250" height="150" as="geometry" />
        </mxCell>
        <mxCell id="mCFHg2fbaJKSFHSSuZTI-58" value="- maxNumberStudents: long&lt;br&gt;- courseCode: String&lt;br&gt;- courseName: String&lt;br&gt;- courseLecturerID: String&lt;br&gt;- registeredStudents: ArrayList&amp;lt;Student&amp;gt;" style="text;strokeColor=none;fillColor=none;align=left;verticalAlign=top;spacingLeft=4;spacingRight=4;overflow=hidden;rotatable=0;points=[[0,0.5],[1,0.5]];portConstraint=eastwest;whiteSpace=wrap;html=1;" vertex="1" parent="mCFHg2fbaJKSFHSSuZTI-57">
          <mxGeometry y="26" width="250" height="84" as="geometry" />
        </mxCell>
        <mxCell id="mCFHg2fbaJKSFHSSuZTI-59" value="" style="line;strokeWidth=1;fillColor=none;align=left;verticalAlign=middle;spacingTop=-1;spacingLeft=3;spacingRight=3;rotatable=0;labelPosition=right;points=[];portConstraint=eastwest;strokeColor=inherit;" vertex="1" parent="mCFHg2fbaJKSFHSSuZTI-57">
          <mxGeometry y="110" width="250" height="8" as="geometry" />
        </mxCell>
        <mxCell id="mCFHg2fbaJKSFHSSuZTI-60" value="+ accessors()/mutators()" style="text;strokeColor=none;fillColor=none;align=left;verticalAlign=top;spacingLeft=4;spacingRight=4;overflow=hidden;rotatable=0;points=[[0,0.5],[1,0.5]];portConstraint=eastwest;whiteSpace=wrap;html=1;" vertex="1" parent="mCFHg2fbaJKSFHSSuZTI-57">
          <mxGeometry y="118" width="250" height="32" as="geometry" />
        </mxCell>
        <mxCell id="mCFHg2fbaJKSFHSSuZTI-61" value="Draft" style="swimlane;fontStyle=1;align=center;verticalAlign=top;childLayout=stackLayout;horizontal=1;startSize=26;horizontalStack=0;resizeParent=1;resizeParentMax=0;resizeLast=0;collapsible=1;marginBottom=0;whiteSpace=wrap;html=1;" vertex="1" parent="1">
          <mxGeometry x="-1030" y="150" width="410" height="200" as="geometry" />
        </mxCell>
        <mxCell id="mCFHg2fbaJKSFHSSuZTI-62" value="- courses: ArrayList&amp;lt;Course&amp;gt;&lt;br&gt;- student: Student" style="text;strokeColor=none;fillColor=none;align=left;verticalAlign=top;spacingLeft=4;spacingRight=4;overflow=hidden;rotatable=0;points=[[0,0.5],[1,0.5]];portConstraint=eastwest;whiteSpace=wrap;html=1;" vertex="1" parent="mCFHg2fbaJKSFHSSuZTI-61">
          <mxGeometry y="26" width="410" height="34" as="geometry" />
        </mxCell>
        <mxCell id="mCFHg2fbaJKSFHSSuZTI-63" value="" style="line;strokeWidth=1;fillColor=none;align=left;verticalAlign=middle;spacingTop=-1;spacingLeft=3;spacingRight=3;rotatable=0;labelPosition=right;points=[];portConstraint=eastwest;strokeColor=inherit;" vertex="1" parent="mCFHg2fbaJKSFHSSuZTI-61">
          <mxGeometry y="60" width="410" height="8" as="geometry" />
        </mxCell>
        <mxCell id="mCFHg2fbaJKSFHSSuZTI-64" value="+ hasCourse(course: Course): boolean&lt;br&gt;+ hasCourse(courseCode: String): boolean&lt;br&gt;+ removeCourse(courseCode: String): boolean&lt;br&gt;+ isEmpty(): boolean&lt;br&gt;+ getNumberOfClasses(): int&lt;br&gt;+ clearDraft(): void&lt;br&gt;+ addCourse(course: Course): void&lt;br&gt;+ accessors()/mutators()" style="text;strokeColor=none;fillColor=none;align=left;verticalAlign=top;spacingLeft=4;spacingRight=4;overflow=hidden;rotatable=0;points=[[0,0.5],[1,0.5]];portConstraint=eastwest;whiteSpace=wrap;html=1;" vertex="1" parent="mCFHg2fbaJKSFHSSuZTI-61">
          <mxGeometry y="68" width="410" height="132" as="geometry" />
        </mxCell>
      </root>
    </mxGraphModel>
  </diagram>
</mxfile>
